<svg width="22" height="22" viewBox="0 0 22 22" fill="none" xmlns="http://www.w3.org/2000/svg">
<path d="M19.7849 0.690247H2.21236C2.20686 0.690247 2.20067 0.690247 2.19379 0.690247C1.36948 0.690247 0.700543 1.353 0.690918 2.17456V19.8241C0.700543 20.6463 1.36948 21.3097 2.19379 21.3097C2.20067 21.3097 2.20686 21.3097 2.21373 21.3097H19.7828C19.7883 21.3097 19.7952 21.3097 19.802 21.3097C20.627 21.3097 21.2974 20.6477 21.3104 19.8254V19.8241V2.17593C21.2974 1.353 20.627 0.690247 19.8014 0.690247C19.7945 0.690247 19.7883 0.690247 19.7814 0.690247H19.7849ZM6.80623 18.2614H3.74411V8.42256H6.80623V18.2614ZM5.27586 7.07643C4.29617 7.07643 3.50279 6.28237 3.50279 5.30337C3.50279 4.32437 4.29685 3.53031 5.27586 3.53031C6.25485 3.53031 7.04892 4.32368 7.04892 5.30268C7.04892 5.30337 7.04892 5.30406 7.04892 5.30543C7.04892 6.28375 6.25554 7.07712 5.27723 7.07712C5.27654 7.07712 5.27586 7.07712 5.27517 7.07712L5.27586 7.07643ZM18.2572 18.2614H15.204V13.4771C15.204 12.3358 15.1807 10.868 13.6132 10.868C12.0209 10.868 11.7782 12.1096 11.7782 13.3932V18.2621H8.72504V8.42325H11.6579V9.76456H11.6978C12.267 8.8055 13.2969 8.173 14.4746 8.173C14.5165 8.173 14.5578 8.17368 14.599 8.17506H14.5929C17.6866 8.17506 18.2586 10.2114 18.2586 12.8617V18.2621L18.2572 18.2614Z" fill="black"/>
</svg>
