<svg width="61" height="51" viewBox="0 0 61 51" fill="none" xmlns="http://www.w3.org/2000/svg">
<path d="M41.5714 0.728271H16.6266C15.2448 0.728271 14.131 1.75952 14.131 3.02796V19.9191C14.131 21.1876 15.2448 22.2188 16.6266 22.2188H41.5613C42.9432 22.2188 44.057 21.1876 44.057 19.9191V3.02796C44.067 1.75952 42.9533 0.728271 41.5714 0.728271ZM41.8086 19.6304C41.8086 19.7851 41.6642 19.9191 41.4992 19.9191H16.6988C16.5235 19.9191 16.3895 19.7851 16.3895 19.6304V11.4737H41.8086V19.6304ZM41.8086 5.32765H16.3895V3.31671C16.3895 3.16202 16.5338 3.02796 16.6988 3.02796H41.4891C41.6645 3.02796 41.7985 3.16202 41.7985 3.31671V5.32765H41.8086ZM18.5445 15.9594H23.7624V18.0012H18.5445V15.9594ZM25.794 15.9594H33.3425V18.0012H25.794V15.9594ZM54.3929 19.7703L44.2273 29.4094C44.4833 30.0291 44.6 30.7862 44.522 31.493C44.4549 32.9644 43.8516 34.3669 42.8199 35.4169C41.7641 36.4262 40.3372 36.9936 38.8416 36.8858L24.9076 36.4158C24.249 36.4194 23.8297 35.8962 23.8501 35.2782C23.8707 34.6604 24.3697 34.2003 24.9467 34.2448L38.9216 34.6906C40.7511 34.7112 42.2893 33.3071 42.3751 31.4942C42.4606 29.6815 40.9916 28.1265 39.1787 28.0407L21.7972 27.5145C18.9437 27.4379 15.9322 27.8401 14.3213 30.3336L0.96875 50.2719H14.2398L18.6479 44.4638C19.663 43.4787 21.114 42.9521 22.6262 42.995L34.7234 43.3383C37.6829 43.4075 40.5291 42.1667 42.4536 40.204L58.9787 24.5506C60.2963 23.3319 60.4245 21.2185 59.0926 19.8026C57.8162 18.5741 55.7511 18.5274 54.3929 19.7703Z" fill="white"/>
</svg>
